<svg xmlns="http://www.w3.org/2000/svg" viewBox="0 0 815.98 815.84"><g id="Calque_2" data-name="Calque 2"><g id="Calque_1-2" data-name="Calque 1"><path d="M368.5,1.44c-139.3,13.7-261.5,97.5-325,222.9C15.5,279.54,0,342.54,0,400.84c0,13.2.2,15,2.4,19.5,4.8,10.1,14.2,15.9,25.7,15.8,8.5,0,14.3-2.7,20.4-9.5,5.9-6.6,7.2-11.5,7.9-31.3C61.1,268.74,132.5,155.44,245,96c104.6-55.2,234.2-53,336.5,5.8q94.8,54.3,143.2,152.5c9.2,18.6,12.7,23.1,20.6,26.6,4.2,1.8,6.5,2.1,12.8,1.7,6.5-.4,8.4-.9,12.7-3.7,9.7-6.2,13.8-14.5,13-26.2-.5-6.2-1.4-8.8-9-24.2C711.5,99.94,588.3,14.84,445.6,1.34,426-.46,387.9-.46,368.5,1.44Z"/><path d="M273.8,268.24c-8.1,2.2-13.8,7.1-18.3,15.6-2.7,5.1-2.7,17,.1,23.1a30.16,30.16,0,0,0,14,14l4.9,2.4h132c112.2,0,132.7-.2,137-1.4,7.2-2.2,15.8-10.7,17.9-18s2-11.9-.4-18.5a30.66,30.66,0,0,0-14.8-15.9l-4.7-2.2-131.5-.2C306.1,267,277.5,267.24,273.8,268.24Z"/><path d="M779.2,379.64a27.45,27.45,0,0,0-15.5,13.1c-3,5.3-3.1,5.9-3.8,23-.9,21.4-1.5,27.7-4,45.1-12.5,84.7-59.1,166.1-126,219.9-61.7,49.8-133.4,76.4-211.9,78.8-86.1,2.6-169.2-26.3-236.3-82.2-37.8-31.5-68.9-71.8-91.4-118.2-8.6-17.7-12.1-22-20.7-25.2-16.6-6.2-34,3.3-37.6,20.5-1.7,8.1,0,13.9,9.4,33.1,51.5,104.7,143.8,181.7,255.6,213.3,36.7,10.3,70.3,14.9,109.7,15,34.5,0,59.4-2.6,90.4-9.5,82-18.3,156.6-61.9,214.5-125.5,15.9-17.4,36.4-45.7,50.3-69.4,34.4-58.5,55.6-137.6,54-200.6-.4-12.5-.6-13.8-3.1-18-3.5-6-7.3-9.4-13.1-12A27.18,27.18,0,0,0,779.2,379.64Z"/><path d="M271.4,381.44c-5.8,2.1-12,7.7-15.2,13.8-2.2,4.2-2.7,6.3-2.6,12.6,0,9.1,3,15.8,9.5,21.3,8.3,7.1-1.2,6.7,144.9,6.7,146.7,0,136.8.5,145.2-6.9,6.6-5.8,9.3-12,9.3-21.1s-2.7-15.3-9.3-21.1c-8.4-7.4,1.6-6.9-145.6-6.8C294.5,379.94,274.9,380.24,271.4,381.44Z"/><path d="M276.8,492.94c-6.2.9-11.7,4-16.5,9.2-13.6,14.8-6.6,39.4,12.9,45.2,4.5,1.3,21.5,1.5,134.8,1.5,143,0,135.5.3,144.1-6.3,16.5-12.6,13-39.4-6.1-47.6-4.8-2.1-5.2-2.1-134.8-2.3C339.8,492.44,279.3,492.64,276.8,492.94Z"/></g></g></svg>