<svg xmlns="http://www.w3.org/2000/svg" viewBox="0 0 309.65 281.74"><g id="Calque_2" data-name="Calque 2"><g id="Calque_1-2" data-name="Calque 1"><g id="Calque_2-2" data-name="Calque 2"><g id="Calque_1-2-2" data-name="Calque 1-2"><path d="M20.56,1.14c-8.1,2.2-13.8,7.1-18.3,15.6-2.7,5.1-2.7,17,.1,23.1a30.17,30.17,0,0,0,14,14l4.9,2.4h132c112.2,0,132.7-.2,137-1.4,7.2-2.2,15.8-10.7,17.9-18s2-11.9-.4-18.5A30.63,30.63,0,0,0,293,2.44l-4.7-2.2L156.76,0C52.86-.1,24.26.14,20.56,1.14Z"/><path d="M18.16,114.34c-5.8,2.1-12,7.7-15.2,13.8-2.2,4.2-2.7,6.3-2.6,12.6,0,9.1,3,15.8,9.5,21.3,8.3,7.1-1.2,6.7,144.9,6.7,146.7,0,136.8.5,145.2-6.9,6.6-5.8,9.3-12,9.3-21.1s-2.7-15.3-9.3-21.1c-8.4-7.4,1.6-6.9-145.6-6.8C41.26,112.84,21.66,113.14,18.16,114.34Z"/><path d="M23.56,225.84c-6.2.9-11.7,4-16.5,9.2-13.6,14.8-6.6,39.4,12.9,45.2,4.5,1.3,21.5,1.5,134.8,1.5,143,0,135.5.3,144.1-6.3,16.5-12.6,13-39.4-6.1-47.6-4.8-2.1-5.2-2.1-134.8-2.3C86.56,225.34,26.06,225.54,23.56,225.84Z"/></g></g></g></g></svg>